<svg aria-hidden="true" style="position: absolute; width: 0; height: 0; overflow: hidden;" version="1.1"
    xmlns="http://www.w3.org/2000/svg" xmlns:xlink="http://www.w3.org/1999/xlink">
    <defs>

        <symbol id="icon-close" viewBox="0 0 32 32">
            <path
                d="M17.253 16l7.369-7.369c0.146-0.17 0.222-0.389 0.213-0.613s-0.101-0.436-0.26-0.594c-0.158-0.158-0.37-0.251-0.594-0.26s-0.442 0.067-0.612 0.213l-7.369 7.369-7.369-7.378c-0.167-0.167-0.394-0.261-0.631-0.261s-0.464 0.094-0.631 0.261c-0.167 0.167-0.261 0.394-0.261 0.631s0.094 0.464 0.261 0.631l7.378 7.369-7.378 7.369c-0.093 0.080-0.169 0.178-0.222 0.288s-0.083 0.23-0.088 0.353c-0.005 0.123 0.016 0.245 0.061 0.359s0.112 0.218 0.199 0.304c0.087 0.087 0.19 0.154 0.304 0.199s0.236 0.065 0.359 0.060c0.122-0.005 0.243-0.035 0.353-0.088s0.208-0.129 0.288-0.222l7.378-7.369 7.369 7.369c0.17 0.146 0.389 0.222 0.612 0.213s0.436-0.101 0.594-0.26c0.158-0.158 0.251-0.37 0.26-0.594s-0.067-0.442-0.213-0.612l-7.369-7.369z">
            </path>
        </symbol>

        <symbol id="icon-swipe-up1" viewBox="0 0 32 32">
            <path d="M22.086 20.914l2.829-2.829-8.914-8.914-8.914 8.914 2.828 2.828 6.086-6.086z"></path>
        </symbol>

        <symbol id="icon-swipe-up2" viewBox="0 0 32 32">
            <path
                d="M16 0c-8.837 0-16 7.163-16 16s7.163 16 16 16 16-7.163 16-16c0-8.837-7.163-16-16-16zM23.402 18.21c-0.737 0.701-1.903 0.672-2.603-0.064l-2.957-3.108v7.362c0 1.018-0.824 1.842-1.842 1.842s-1.841-0.824-1.841-1.842v-7.362l-2.957 3.108c-0.7 0.736-1.867 0.766-2.603 0.064-0.737-0.701-0.767-1.866-0.065-2.603l7.253-7.625c0.055-0.058 0.132-0.091 0.212-0.091s0.157 0.033 0.212 0.091l7.254 7.625c0.702 0.737 0.673 1.902-0.065 2.603z">
            </path>
        </symbol>

        <symbol id="icon-swipe-up3" viewBox="0 0 32 32">
            <path d="M16 1l-15 15h9v16h12v-16h9z"></path>
        </symbol>

        <symbol id="icon-swipe-up4" viewBox="0 0 32 32">
            <path
                d="M0 16c0 8.837 7.163 16 16 16s16-7.163 16-16-7.163-16-16-16-16 7.163-16 16zM29 16c0 7.18-5.82 13-13 13s-13-5.82-13-13 5.82-13 13-13 13 5.82 13 13z">
            </path>
            <path d="M22.086 20.914l2.829-2.829-8.914-8.914-8.914 8.914 2.828 2.828 6.086-6.086z"></path>
        </symbol>

    </defs>
</svg>